<svg width="24" height="24" viewBox="0 0 24 24" fill="none" xmlns="http://www.w3.org/2000/svg">
<g clip-path="url(#clip0)">
<path d="M17.0627 14.7441C16.217 14.0207 15.3587 13.5826 14.5233 14.3048L14.0245 14.7413C13.6595 15.0582 12.981 16.5388 10.3574 13.5208C7.73446 10.5067 9.29535 10.0373 9.66086 9.7232L10.1624 9.28613C10.9934 8.56223 10.6798 7.65093 10.0804 6.71286L9.71877 6.14466C9.1167 5.20878 8.46109 4.59415 7.62792 5.31696L7.17773 5.71032C6.8095 5.97858 5.78019 6.85054 5.53052 8.50705C5.23003 10.4946 6.17793 12.7707 8.34964 15.268C10.5186 17.7664 12.6422 19.0214 14.6539 18.9995C16.3257 18.9815 17.3353 18.0844 17.6511 17.7582L18.1029 17.3643C18.9339 16.6421 18.4176 15.9067 17.5713 15.1817L17.0627 14.7441Z" fill="#414141"/>
</g>
<defs>
<clipPath id="clip0">
<rect width="14" height="14" fill="white" transform="translate(5 5)"/>
</clipPath>
</defs>
</svg>
