<svg width="24" height="24" viewBox="0 0 24 24" fill="none" xmlns="http://www.w3.org/2000/svg">
<path d="M5.4036 15.8216H4V6.59998H15.2171V15.8216H8.2108" stroke="#414141" stroke-linecap="round" stroke-linejoin="round"/>
<path d="M19.4934 11.2108H15.2171V8.9884H17.9588L19.4934 11.2108Z" stroke="#414141" stroke-linecap="round" stroke-linejoin="round"/>
<path d="M6.8072 17.2252C7.58238 17.2252 8.2108 16.5968 8.2108 15.8216C8.2108 15.0464 7.58238 14.418 6.8072 14.418C6.03201 14.418 5.40359 15.0464 5.40359 15.8216C5.40359 16.5968 6.03201 17.2252 6.8072 17.2252Z" stroke="#414141" stroke-linecap="round" stroke-linejoin="round"/>
<path d="M18.3074 17.2252C19.0826 17.2252 19.711 16.5968 19.711 15.8216C19.711 15.0464 19.0826 14.418 18.3074 14.418C17.5322 14.418 16.9038 15.0464 16.9038 15.8216C16.9038 16.5968 17.5322 17.2252 18.3074 17.2252Z" stroke="#414141" stroke-linecap="round" stroke-linejoin="round"/>
<path d="M16.9038 15.8193H15.2171V11.2085H19.4934L21.3977 12.4039V15.8193H19.711C19.711 15.4471 19.5631 15.0901 19.2999 14.8268C19.0367 14.5636 18.6796 14.4157 18.3074 14.4157C17.9351 14.4157 17.5781 14.5636 17.3149 14.8268C17.0517 15.0901 16.9038 15.4471 16.9038 15.8193Z" fill="#EF8F59" stroke="#414141" stroke-miterlimit="10"/>
</svg>
