<svg width="23" height="16" viewBox="0 0 23 16" fill="none" xmlns="http://www.w3.org/2000/svg">
<path fill-rule="evenodd" clip-rule="evenodd" d="M19.78 10.1199C21.5584 10.1199 23 8.67829 23 6.89993C23 5.12157 21.5584 3.67993 19.78 3.67993C18.0016 3.67993 16.56 5.12157 16.56 6.89993C16.56 8.67829 18.0016 10.1199 19.78 10.1199ZM19.78 8.50997C20.6692 8.50997 21.39 7.78915 21.39 6.89997C21.39 6.01079 20.6692 5.28997 19.78 5.28997C18.8908 5.28997 18.17 6.01079 18.17 6.89997C18.17 7.78915 18.8908 8.50997 19.78 8.50997Z" fill="#D5D5D5"/>
<path d="M1.84 0H19.32V5.74999C19.32 10.1959 15.7159 13.8 11.27 13.8H9.88999C5.4441 13.8 1.84 10.1959 1.84 5.75V0Z" fill="#D5D5D5"/>
<path fill-rule="evenodd" clip-rule="evenodd" d="M1.23268 13.8982C0.817115 13.5549 1.05986 12.8799 1.59889 12.8799H19.5611C20.1001 12.8799 20.3429 13.5549 19.9273 13.8982L19.0943 14.5863C18.2699 15.2673 17.234 15.6399 16.1647 15.6399H4.99533C3.926 15.6399 2.89008 15.2673 2.06567 14.5863L1.23268 13.8982Z" fill="#D5D5D5"/>
</svg>
