<svg width="24" height="24" viewBox="0 0 24 24" fill="none" xmlns="http://www.w3.org/2000/svg">
<path fill-rule="evenodd" clip-rule="evenodd" d="M17.8539 7.77948C17.8539 5.86895 16.4658 3.75 15.198 3.75C13.93 3.75 12.525 5.86895 12.525 7.77948C12.525 9.30791 13.2789 10.2284 14.3413 10.5584L14.2042 19.2427C14.2042 19.7985 14.6326 20.25 15.1807 20.25C15.7292 20.25 16.1747 19.7985 16.1576 19.2427L16.0205 10.5584C17.1 10.2458 17.8539 9.30791 17.8539 7.77948Z" fill="white"/>
<path d="M17.8539 7.77948C17.8539 5.86895 16.4658 3.75 15.198 3.75C13.93 3.75 12.525 5.86895 12.525 7.77948C12.525 9.30791 13.2789 10.2284 14.3413 10.5584L14.2042 19.2427C14.2042 19.7985 14.6326 20.25 15.1807 20.25C15.7292 20.25 16.1747 19.7985 16.1576 19.2427L16.0205 10.5584C17.1 10.2458 17.8539 9.30791 17.8539 7.77948" stroke="#414141" stroke-linejoin="round"/>
<path fill-rule="evenodd" clip-rule="evenodd" d="M10.185 4.78655V8.36431C10.185 8.46752 10.1011 8.55352 10.0004 8.55352H6.38609C6.2854 8.55352 6.2015 8.46752 6.2015 8.36431V4.76935C6.2015 4.52854 6.11249 4.52854 6.11249 4.76935V9.12115C6.11249 9.86078 6.66624 10.4628 7.35423 10.5316L7.21999 19.2524C7.21999 19.8028 7.6395 20.25 8.17647 20.25C8.71344 20.25 9.14972 19.8028 9.13294 19.2524L9.01548 10.5488C9.72025 10.48 10.2572 9.86078 10.2572 9.13835V4.76935C10.2572 4.54574 10.185 4.54574 10.185 4.78655Z" fill="#EF8F59" stroke="#414141" stroke-linejoin="round"/>
<path d="M8.24997 4.65002V8.25002" stroke="#414141" stroke-linecap="round" stroke-linejoin="round"/>
</svg>
