<svg width="10" height="12" viewBox="0 0 10 12" fill="none" xmlns="http://www.w3.org/2000/svg">
<path fill-rule="evenodd" clip-rule="evenodd" d="M5.04731 10.2751C6.55097 9.23254 7.81067 7.60291 8.19428 5.78803C8.58758 3.92527 7.46126 2.00437 5.54093 1.65382C5.34371 1.61791 5.1425 1.59967 4.94129 1.59967C4.6979 1.59967 4.45394 1.62589 4.21568 1.67947C3.36581 1.86928 2.61284 2.39995 2.13974 3.12955C1.59995 3.96289 1.5002 4.9336 1.69457 5.8912C2.06108 7.69696 3.27062 9.32374 4.83185 10.2813C4.89854 10.3218 4.9829 10.3195 5.04731 10.2751Z" fill="#495057"/>
<mask id="mask0" mask-type="alpha" maskUnits="userSpaceOnUse" x="1" y="1" width="8" height="10">
<path fill-rule="evenodd" clip-rule="evenodd" d="M4.21562 1.67935C3.36575 1.86916 2.61278 2.39926 2.14025 3.12943C1.59989 3.96277 1.50014 4.93348 1.69508 5.89108C2.06102 7.69684 3.27056 9.32362 4.83179 10.2812C4.89848 10.3217 4.98284 10.32 5.04725 10.2749C6.55091 9.23299 7.81004 7.60222 8.19422 5.78791C8.58752 3.92515 7.4612 2.00482 5.54144 1.6537C5.34308 1.61779 5.14244 1.59955 4.9418 1.59955C4.69784 1.59955 4.45388 1.62577 4.21562 1.67935Z" fill="white"/>
</mask>
<g mask="url(#mask0)">
<path fill-rule="evenodd" clip-rule="evenodd" d="M-1.32251 17.657H11.6068V-2.36255H-1.32251V17.657Z" fill="#CED4DA"/>
<path fill-rule="evenodd" clip-rule="evenodd" d="M0.553955 10.5263H9.32911V0.557007H0.553955V10.5263Z" fill="#CED4DA"/>
<path fill-rule="evenodd" clip-rule="evenodd" d="M0.553955 10.5263H9.32911V0.557007H0.553955V10.5263Z" stroke="#CED4DA" stroke-width="0.855" stroke-linecap="round" stroke-linejoin="round"/>
<path fill-rule="evenodd" clip-rule="evenodd" d="M-1.32251 17.657H11.6068V-2.36255H-1.32251V17.657Z" stroke="#CED4DA" stroke-width="0.855" stroke-linecap="round" stroke-linejoin="round"/>
</g>
<path fill-rule="evenodd" clip-rule="evenodd" d="M5.04731 10.2751C6.55097 9.23254 7.81067 7.60291 8.19428 5.78803C8.58758 3.92527 7.46126 2.00437 5.54093 1.65382C5.34371 1.61791 5.1425 1.59967 4.94129 1.59967C4.6979 1.59967 4.45394 1.62589 4.21568 1.67947C3.36581 1.86928 2.61284 2.39995 2.13974 3.12955C1.59995 3.96289 1.5002 4.9336 1.69457 5.8912C2.06108 7.69696 3.27062 9.32374 4.83185 10.2813C4.89854 10.3218 4.9829 10.3195 5.04731 10.2751Z" fill="#495057" stroke="#495057" stroke-width="0.855" stroke-linecap="round" stroke-linejoin="round"/>
<path fill-rule="evenodd" clip-rule="evenodd" d="M4.94824 6.48158C5.79355 6.48158 6.47983 5.79587 6.47983 4.94999C6.47983 4.10411 5.79355 3.4184 4.94824 3.4184C4.10236 3.4184 3.41608 4.10411 3.41608 4.94999C3.41608 5.79587 4.10236 6.48158 4.94824 6.48158Z" fill="white"/>
</svg>
