<svg width="24" height="24" viewBox="0 0 24 24" fill="none" xmlns="http://www.w3.org/2000/svg">
<path d="M17.6056 11.2259H6.39136L7.84415 7.00458C7.86493 6.94515 7.90361 6.89361 7.95488 6.85707C8.00615 6.82052 8.06748 6.80077 8.13044 6.80052H15.8665C15.9325 6.79685 15.998 6.81478 16.0529 6.85159C16.1079 6.88841 16.1493 6.94211 16.1711 7.00458L17.6056 11.2259Z" stroke="#414141" stroke-linecap="round" stroke-linejoin="round"/>
<path d="M17.6056 11.2259H6.39137L5.40457 12.3102V14.6919C5.40457 14.9342 5.50084 15.1666 5.67219 15.338C5.84354 15.5093 6.07595 15.6056 6.31828 15.6056H17.7305C17.9728 15.6056 18.2052 15.5093 18.3765 15.338C18.5479 15.1666 18.6442 14.9342 18.6442 14.6919V12.5599C18.6435 12.4031 18.5824 12.2525 18.4736 12.1396L17.6056 11.2259Z" fill="#EF8F59" stroke="#414141" stroke-linecap="round" stroke-linejoin="round"/>
<path d="M6.59543 15.6056H8.56903V16.4949C8.56903 16.6565 8.50486 16.8114 8.39062 16.9257C8.27639 17.0399 8.12145 17.1041 7.9599 17.1041H7.20457C7.04301 17.1041 6.88808 17.0399 6.77384 16.9257C6.65961 16.8114 6.59543 16.6565 6.59543 16.4949V15.6056Z" fill="#414141" stroke="#414141" stroke-linecap="round" stroke-linejoin="round"/>
<path d="M15.4371 15.6056H17.4107V16.4949C17.4107 16.6565 17.3465 16.8114 17.2323 16.9257C17.118 17.0399 16.9631 17.1041 16.8015 17.1041H16.0462C15.8847 17.1041 15.7297 17.0399 15.6155 16.9257C15.5012 16.8114 15.4371 16.6565 15.4371 16.4949V15.6056Z" fill="#414141" stroke="#414141" stroke-linecap="round" stroke-linejoin="round"/>
<path d="M5.24315 9.74261H5.64822C5.74581 9.74261 5.84245 9.76184 5.93261 9.79918C6.02278 9.83653 6.1047 9.89127 6.17371 9.96028C6.24272 10.0293 6.29746 10.1112 6.3348 10.2014C6.37215 10.2915 6.39137 10.3882 6.39137 10.4858V11.2167H5.24315C5.04815 11.2168 4.86095 11.1401 4.72192 11.0034C4.5829 10.8666 4.5032 10.6807 4.5 10.4858V10.4858C4.5 10.2887 4.5783 10.0996 4.71766 9.96028C4.85703 9.82091 5.04605 9.74261 5.24315 9.74261V9.74261Z" stroke="#414141" stroke-linecap="round" stroke-linejoin="round"/>
<path d="M18.7569 11.2259H17.6086V10.4827C17.6086 10.2856 17.6869 10.0966 17.8263 9.95726C17.9657 9.81789 18.1547 9.7396 18.3518 9.7396H18.7569C18.9539 9.7396 19.143 9.81789 19.2823 9.95726C19.4217 10.0966 19.5 10.2856 19.5 10.4827C19.5 10.6798 19.4217 10.8689 19.2823 11.0082C19.143 11.1476 18.9539 11.2259 18.7569 11.2259Z" stroke="#414141" stroke-linecap="round" stroke-linejoin="round"/>
<path d="M8.32843 13.4157H7.41473C7.34208 13.4161 7.27007 13.4022 7.20283 13.3746C7.1356 13.3471 7.07446 13.3066 7.02295 13.2553C6.97144 13.2041 6.93056 13.1432 6.90267 13.0761C6.87477 13.009 6.86041 12.9371 6.86041 12.8644" stroke="#414141" stroke-linecap="round" stroke-linejoin="round"/>
<path d="M15.732 13.4157H16.6457C16.7183 13.4161 16.7904 13.4022 16.8576 13.3746C16.9248 13.3471 16.986 13.3066 17.0375 13.2553C17.089 13.2041 17.1299 13.1432 17.1578 13.0761C17.1857 13.009 17.2 12.9371 17.2 12.8644" stroke="#414141" stroke-linecap="round" stroke-linejoin="round"/>
<path d="M10.2594 14.168H13.7954" stroke="#414141" stroke-linecap="round" stroke-linejoin="round"/>
</svg>
