<svg width="43" height="43" viewBox="0 0 43 43" fill="none" xmlns="http://www.w3.org/2000/svg">
<g filter="url(#filter0_ddddii)">
<rect x="5" y="5" width="32" height="32" rx="16" fill="#F3D4C3"/>
</g>
<path fill-rule="evenodd" clip-rule="evenodd" d="M28.2 22.8C29.7464 22.8 31 21.5464 31 20C31 18.4536 29.7464 17.2 28.2 17.2C26.6536 17.2 25.4 18.4536 25.4 20C25.4 21.5464 26.6536 22.8 28.2 22.8ZM28.2 21.4C28.9732 21.4 29.6 20.7732 29.6 20C29.6 19.2268 28.9732 18.6 28.2 18.6C27.4268 18.6 26.8 19.2268 26.8 20C26.8 20.7732 27.4268 21.4 28.2 21.4Z" fill="white"/>
<path d="M12.6 14H27.8V19C27.8 22.866 24.666 26 20.8 26H19.6C15.734 26 12.6 22.866 12.6 19V14Z" fill="white"/>
<path fill-rule="evenodd" clip-rule="evenodd" d="M12.6 18V19C12.6 22.866 15.734 26 19.6 26H20.8C24.666 26 27.8 22.866 27.8 19L27.8 18H12.6Z" fill="#EF8F59"/>
<path fill-rule="evenodd" clip-rule="evenodd" d="M12.0719 26.0855C11.7105 25.787 11.9216 25.2 12.3903 25.2H28.0097C28.4784 25.2 28.6895 25.787 28.3281 26.0855L27.6038 26.6839C26.8869 27.2761 25.9861 27.6 25.0562 27.6H15.3438C14.4139 27.6 13.5131 27.2761 12.7962 26.6839L12.0719 26.0855Z" fill="white"/>
<defs>
<filter id="filter0_ddddii" x="0.247525" y="0.247525" width="42.4554" height="42.4554" filterUnits="userSpaceOnUse" color-interpolation-filters="sRGB">
<feFlood flood-opacity="0" result="BackgroundImageFix"/>
<feColorMatrix in="SourceAlpha" type="matrix" values="0 0 0 0 0 0 0 0 0 0 0 0 0 0 0 0 0 0 127 0" result="hardAlpha"/>
<feOffset dx="1.58416" dy="1.58416"/>
<feGaussianBlur stdDeviation="2.05941"/>
<feColorMatrix type="matrix" values="0 0 0 0 0.847059 0 0 0 0 0.847059 0 0 0 0 0.858824 0 0 0 0.9 0"/>
<feBlend mode="normal" in2="BackgroundImageFix" result="effect1_dropShadow"/>
<feColorMatrix in="SourceAlpha" type="matrix" values="0 0 0 0 0 0 0 0 0 0 0 0 0 0 0 0 0 0 127 0" result="hardAlpha"/>
<feOffset dx="-1.58416" dy="-1.58416"/>
<feGaussianBlur stdDeviation="1.58416"/>
<feColorMatrix type="matrix" values="0 0 0 0 1 0 0 0 0 1 0 0 0 0 1 0 0 0 0.9 0"/>
<feBlend mode="normal" in2="effect1_dropShadow" result="effect2_dropShadow"/>
<feColorMatrix in="SourceAlpha" type="matrix" values="0 0 0 0 0 0 0 0 0 0 0 0 0 0 0 0 0 0 127 0" result="hardAlpha"/>
<feOffset dx="1.58416" dy="-1.58416"/>
<feGaussianBlur stdDeviation="1.58416"/>
<feColorMatrix type="matrix" values="0 0 0 0 0.847059 0 0 0 0 0.847059 0 0 0 0 0.858824 0 0 0 0.2 0"/>
<feBlend mode="normal" in2="effect2_dropShadow" result="effect3_dropShadow"/>
<feColorMatrix in="SourceAlpha" type="matrix" values="0 0 0 0 0 0 0 0 0 0 0 0 0 0 0 0 0 0 127 0" result="hardAlpha"/>
<feOffset dx="-1.58416" dy="1.58416"/>
<feGaussianBlur stdDeviation="1.58416"/>
<feColorMatrix type="matrix" values="0 0 0 0 0.847059 0 0 0 0 0.847059 0 0 0 0 0.858824 0 0 0 0.2 0"/>
<feBlend mode="normal" in2="effect3_dropShadow" result="effect4_dropShadow"/>
<feBlend mode="normal" in="SourceGraphic" in2="effect4_dropShadow" result="shape"/>
<feColorMatrix in="SourceAlpha" type="matrix" values="0 0 0 0 0 0 0 0 0 0 0 0 0 0 0 0 0 0 127 0" result="hardAlpha"/>
<feOffset dx="-0.316832" dy="-0.316832"/>
<feGaussianBlur stdDeviation="0.316832"/>
<feComposite in2="hardAlpha" operator="arithmetic" k2="-1" k3="1"/>
<feColorMatrix type="matrix" values="0 0 0 0 0.847059 0 0 0 0 0.847059 0 0 0 0 0.858824 0 0 0 0.5 0"/>
<feBlend mode="normal" in2="shape" result="effect5_innerShadow"/>
<feColorMatrix in="SourceAlpha" type="matrix" values="0 0 0 0 0 0 0 0 0 0 0 0 0 0 0 0 0 0 127 0" result="hardAlpha"/>
<feOffset dx="0.316832" dy="0.316832"/>
<feGaussianBlur stdDeviation="0.316832"/>
<feComposite in2="hardAlpha" operator="arithmetic" k2="-1" k3="1"/>
<feColorMatrix type="matrix" values="0 0 0 0 1 0 0 0 0 1 0 0 0 0 1 0 0 0 0.3 0"/>
<feBlend mode="normal" in2="effect5_innerShadow" result="effect6_innerShadow"/>
</filter>
</defs>
</svg>
