<svg width="127" height="20" viewBox="0 0 127 20" fill="none" xmlns="http://www.w3.org/2000/svg">
<path d="M6.67952 0H127L121.122 20H0L6.67952 0Z" fill="#3D7FFF"/>
<path d="M23.265 8.43H21.765V3.75H19.23V16.56H21.765V10.89H23.265V8.43ZM10.17 15.96H17.625V4.05H10.17V15.96ZM12.705 6.405H15.09V13.605H12.705V6.405ZM36.1637 8.79L36.7037 6.9L31.9637 5.985C32.0087 5.88 32.0537 5.79 32.0837 5.685H36.3887V3.75H24.8987V5.685H29.2487C28.4537 6.345 26.5337 6.735 24.7487 6.765V8.73C26.8787 8.7 28.8887 8.295 30.2987 7.53L36.1637 8.79ZM37.1237 11.13V9.18H24.1637V11.13H29.3837V11.73C26.6237 11.88 24.7937 12.6 24.7937 14.205C24.7937 16.05 27.1937 16.71 30.6437 16.71C34.0937 16.71 36.4937 16.05 36.4937 14.205C36.4937 12.6 34.6637 11.88 31.9037 11.73V11.13H37.1237ZM33.7937 14.205C33.7937 14.67 32.5037 14.82 30.6437 14.82C28.7837 14.82 27.4937 14.67 27.4937 14.205C27.4937 13.755 28.7837 13.59 30.6437 13.59C32.5037 13.59 33.7937 13.755 33.7937 14.205ZM50.9674 9.375H41.8474V8.64H50.6074V6.705H41.8474V5.97H50.8174V3.9H39.3424V11.445H50.9674V9.375ZM51.5524 12.24H38.5924V14.52H43.7674V16.86H46.3774V14.52H51.5524V12.24ZM62.9361 3.75V8.58H61.2111C60.8811 5.355 59.4111 3.9 57.3111 3.9C54.9261 3.9 53.3361 5.79 53.3361 10.005C53.3361 14.22 54.9261 16.11 57.3111 16.11C59.5161 16.11 61.0161 14.505 61.2411 10.95H62.9361V16.56H65.4711V3.75H62.9361ZM57.3111 13.785C56.4711 13.785 55.8411 12.885 55.8411 10.005C55.8411 7.14 56.4711 6.225 57.3111 6.225C58.1361 6.225 58.7661 7.14 58.7661 10.005C58.7661 12.885 58.1361 13.785 57.3111 13.785ZM71.9989 16.35H74.7289V13.095H76.6939C79.8739 13.095 81.7339 11.325 81.7339 8.595C81.7339 5.895 79.8739 4.125 76.6939 4.125H71.9989V16.35ZM74.7289 10.68V6.54H76.5739C78.0889 6.54 79.0039 7.245 79.0039 8.595C79.0039 9.96 78.0889 10.68 76.5739 10.68H74.7289ZM83.205 4.125V16.35H85.935V4.125H83.205ZM94.0976 16.65C97.4876 16.65 99.9476 14.34 100.323 11.88H97.5626C97.3526 12.99 95.9126 14.145 94.1576 14.145C91.9376 14.145 90.2876 12.495 90.2876 10.23C90.2876 7.95 91.9376 6.315 94.1576 6.315C95.9126 6.315 97.1576 7.245 97.4426 8.415H100.203C99.7076 5.835 97.4576 3.81 94.0976 3.81C90.3326 3.81 87.5576 6.525 87.5576 10.23C87.5576 13.935 90.3326 16.65 94.0976 16.65ZM109.711 16.35H113.116L108.061 9.66L112.861 4.125H109.516L104.626 9.885V4.125H101.896V16.35H104.626V13.605L106.291 11.685L109.711 16.35ZM117.199 4.125H113.959L114.649 12.3H116.509L117.199 4.125ZM115.579 13.395C114.664 13.395 113.989 14.07 113.989 14.985C113.989 15.9 114.664 16.56 115.579 16.56C116.494 16.56 117.169 15.9 117.169 14.985C117.169 14.07 116.494 13.395 115.579 13.395Z" fill="white"/>
</svg>
